<svg xmlns="http://www.w3.org/2000/svg" viewBox="0 0 493.79 507.02"><defs><style>.cls-1{fill:#efcdac;}.cls-2{fill:#fcfcfc;}.cls-3{fill:#3c30d8;}.cls-4{fill:#efd34b;}.cls-5{fill:#dd6400;}.cls-6{fill:#d10000;}</style></defs><g id="Layer_2" data-name="Layer 2"><g id="Layer_1-2" data-name="Layer 1"><path class="cls-1" d="M131.44,190.32c2.8-16.77,4.2-25.16,7.89-34,6.16-14.73,14.83-24.15,20.63-30.35,5.45-5.81,16.31-17.2,32.77-24.88,20.48-9.55,22.93-.91,79.5-5.46,13.11-1.06,24.12-2.42,34.6,4.25,1.94,1.24,4.17,2.94,16.38,18.81,10,13,15.05,19.55,21.24,29.13,9.37,14.49,14.05,21.73,16.39,29.74,4.18,14.35,3.31,28.74,3,32.77-.89,13.14-3.88,18.92,0,27.31,1.63,3.5,3.65,5.73,6.68,12.74a81.26,81.26,0,0,1,4.25,12.14c2.11,9.32-1.66,12.71-5.47,30.95-3.32,15.91-2.25,21.95-7.89,26.1-4.54,3.34-7.08.77-11.53,3.64-9.48,6.11-2.86,20.94-10.31,37-1.5,3.21-2.37,3.94-24.89,24.27C290.48,406.41,289,407.8,284.37,410c-15.18,7.2-29.57,6.51-38.84,6.07a104.93,104.93,0,0,1-40.05-10.32c-15.42-7.05-32.9-15.05-42.48-32.77-3.82-7.05-12.16-26.32-17-40.66-.93-2.77-2.93-8.91-8.49-12.14-4.9-2.84-8-.8-12.14-3-4.61-2.5-5.85-7.85-8.5-23.06-3.37-19.4-5-29.17-3.64-32.77,4.1-10.64,12.22-9.47,15.78-20.64,2.26-7.09-.41-9.44-.61-23.06C128.28,209.24,129.33,202.93,131.44,190.32Z"/><path class="cls-2" d="M201.23,314.73c-20.46,7.45-22,7.87-23.06,10.32-.77,1.77-.11,5.83,1.21,14,.92,5.63,1.77,8.06,3,10.31a25.07,25.07,0,0,0,4.85,6.07,35.3,35.3,0,0,0,9.1,6.07c7.52,3.3,16.25.46,25.49-1.21,19.94-3.61,38.61-1.13,42.48-.61,5.71.76,11.73,2,20.64,1.21,11.59-1,15.63-4.24,17-5.46,4.76-4.26,6-9.82,6.68-12.74.59-2.65,2.84-12.58-3-21.24-6.39-9.44-20.07-13.92-26.7-9.71-3.63,2.3-2.39,5.45-7.89,10.31a26.46,26.46,0,0,1-12.14,6.07c-2.85.56-3.19.09-12.14-.3-11.39-.5-11.77.22-14.56-.91-3.46-1.4-2.71-2.44-10.92-8.5-6.27-4.62-8.33-5.21-9.71-5.46C208,312.27,205.23,313.28,201.23,314.73Z"/><polygon class="cls-3" points="143.58 382.7 143.58 494.37 198.83 468.27 222.44 457.35 239.94 462.2 271.05 457.35 293.47 465.84 346.88 494.37 346.88 436 346.88 376.63 280.54 419.72 255.24 414.26 227.32 414.26 143.58 379.06 143.58 382.7"/><path class="cls-4" d="M199.41,90.19c-2.86-5.2,5.25-9.38,16.38-32.77,8.14-17.11,11.15-30.3,20.64-32.78a17.61,17.61,0,0,1,18.81,6.68c6.26,7.22,8.67,13.68,14,24.27,6.31,12.66,10.14,18,11.53,28.53.68,5.11.15,6.74-.61,7.89-4,6-16.62,2.31-32.77.6C215.91,89.3,203.06,96.83,199.41,90.19Z"/><path class="cls-5" d="M366.09,151.19c-4,4.17-.57,10.77,1.82,29.13a234.54,234.54,0,0,1,1.82,29.74c.14,17.17-1.59,22.16,1.22,33.37,1.88,7.51,3,6.74,5.46,15.18,1.93,6.67,5.36,19.06,3,34.59-1.48,9.88-4.1,27.4-14.56,33.38-1.67.95-5.54,2.75-6.07,6.07-.58,3.63,3.22,6.92,3.64,7.28,2.61,2.2,6,3.07,17,2.43,11.76-.69,17.64-1,21.25-3.65,5.7-4.13,7.83-10.66,9.1-14.56,3.16-9.71.66-15.66,5.46-20,.65-.59,2.26-1.9,7.28-3,13.76-3.1,18.93,2.84,27.92.6,8.39-2.08,13.24-9.58,18.81-18.2a64.6,64.6,0,0,0,8.5-21.24c1.53-7.33,2.64-12.63.61-18.82-2.73-8.26-9.35-12.87-12.75-15.17-13.54-9.15-23-3.65-29.13-11.53-4.26-5.48-.47-9.19-3.64-20.63-3.1-11.21-9.68-18.31-15.78-24.88-5.72-6.18-15.71-16.68-31.56-20.64C379.17,149,370.35,146.8,366.09,151.19Z"/><path class="cls-5" d="M130.22,152.09c4.05,4.17.58,10.76-1.82,29.13A236.42,236.42,0,0,0,126.58,211c-.14,17.18,1.6,22.17-1.21,33.38-1.88,7.51-3,6.74-5.46,15.17-1.93,6.68-5.36,19.07-3,34.6,1.48,9.88,4.11,27.4,14.57,33.38,1.67.95,5.54,2.75,6.07,6.06.57,3.64-3.22,6.93-3.64,7.29-2.61,2.2-6,3.07-17,2.42-11.75-.68-17.63-1-21.24-3.64-5.7-4.13-7.83-10.66-9.1-14.56-3.16-9.71-.66-15.66-5.46-20-.66-.59-2.26-1.9-7.29-3-13.76-3.1-18.92,2.84-27.91.6-8.39-2.08-13.24-9.58-18.81-18.2a64.6,64.6,0,0,1-8.5-21.24c-1.54-7.33-2.65-12.63-.61-18.82,2.73-8.27,9.35-12.87,12.75-15.17,13.53-9.15,23-3.65,29.13-11.53,4.26-5.49.47-9.19,3.64-20.63,3.1-11.21,9.68-18.31,15.78-24.89C85,165.94,95,155.44,110.8,151.48,117.14,149.9,126,147.7,130.22,152.09Z"/><path d="M190,194.81a17.17,17.17,0,0,1-15.47,9.81H170.8a8.75,8.75,0,0,0,0,17.5h3.68a34.74,34.74,0,0,0,31.31-19.86A8.75,8.75,0,0,0,190,194.81Z"/><path d="M318,222.13h3.68a8.75,8.75,0,0,0,0-17.5H318a17.17,17.17,0,0,1-15.47-9.81,8.75,8.75,0,1,0-15.83,7.45A34.71,34.71,0,0,0,318,222.13Z"/><path d="M176.62,251.55v0a6.15,6.15,0,0,0,6.15,6.15h14.85a6.15,6.15,0,0,0,6.16-6.15v0c0-10-6.08-18.1-13.58-18.1s-13.58,8.11-13.58,18.1Z"/><path d="M302.32,233.44c-7.5,0-13.58,8.11-13.58,18.1v0a6.15,6.15,0,0,0,6.15,6.15h14.85a6.15,6.15,0,0,0,6.15-6.15v0c0-10-6.07-18.1-13.57-18.1Z"/><path d="M493.58,256.4a54.67,54.67,0,0,0-52.68-49.94c0-1.4-.11-2.79-.23-4.19A71.77,71.77,0,0,0,363.06,137c-.69.06-1.36.2-2,.28a133.75,133.75,0,0,0-59-53.08L256.62,6.11a12.23,12.23,0,0,0-11.91-6,12.18,12.18,0,0,0-11.9,6L186.24,86.27a133.38,133.38,0,0,0-54.86,50.8c-.22,0-.44-.07-.66-.09a71.77,71.77,0,0,0-77.6,65.29c-.12,1.39-.2,2.79-.24,4.19A54.66,54.66,0,1,0,63.61,315a54.7,54.7,0,0,0,49.67,48.54c1.6.13,3.19.2,4.78.2a54.07,54.07,0,0,0,23.74-5.48l.79,2.39c.48,1.47,1.07,2.88,1.63,4.3a8.74,8.74,0,0,0-8.69,8.74V498.27a8.74,8.74,0,0,0,8.75,8.75,8.6,8.6,0,0,0,4.26-1.11l72.67-40.59a20.76,20.76,0,0,0,13,4.54h25.43a20.76,20.76,0,0,0,13-4.54l72.67,40.59a8.74,8.74,0,0,0,13-7.64V373.72a8.63,8.63,0,0,0-10-8.59c.59-1.47,1.19-2.94,1.69-4.45l1-3a54.13,54.13,0,0,0,24.82,6c1.58,0,3.18-.07,4.78-.21A54.71,54.71,0,0,0,430.19,315a53.53,53.53,0,0,0,13.64.52,54.62,54.62,0,0,0,49.75-59.14Zm-51.87,34.74A29.88,29.88,0,0,1,423,286.52a12.25,12.25,0,0,0-18.3,13.88,30.6,30.6,0,0,1,1.18,6.13A30.15,30.15,0,0,1,358.75,334l1.16-3.52a35.44,35.44,0,0,0,26.77-28.57l4.83-28.94a39.88,39.88,0,0,0-12.57-36.21l-2.11-1.91a132.84,132.84,0,0,0-4.49-73.45,47.11,47.11,0,0,1,43.1,56.52,12.25,12.25,0,0,0,15.37,14.23,30.15,30.15,0,1,1,10.9,59Zm-326.34,48a30.18,30.18,0,0,1-26.28-38.76,12.25,12.25,0,0,0-18.3-13.87,30.13,30.13,0,1,1-13.55-55.47A30.18,30.18,0,0,1,63,232.12a12.26,12.26,0,0,0,15.36-14.23A47.14,47.14,0,0,1,120,161.45a134.4,134.4,0,0,0-4.3,73.35l-2.11,1.93A39.86,39.86,0,0,0,101,272.94l4.82,28.93a35.44,35.44,0,0,0,26.78,28.57l1.37,4.18a29.92,29.92,0,0,1-18.61,4.53Zm38.56-22.27a14.45,14.45,0,0,0-12.16-9.83l-2.27-.24a10.84,10.84,0,0,1-9.51-9l-4.82-28.93a15.47,15.47,0,0,1,4.88-14.05L137.6,248a12.24,12.24,0,0,0,3.55-12.4A109.72,109.72,0,0,1,137,205.79a108.49,108.49,0,0,1,58.31-96.62h99.9A11.92,11.92,0,0,0,297,109a109.19,109.19,0,0,1,54.37,126.58,12.24,12.24,0,0,0,3.55,12.4l7.54,6.85a15.47,15.47,0,0,1,4.88,14.05l-4.82,28.94a10.87,10.87,0,0,1-9.53,9l-2.2.23a14.44,14.44,0,0,0-12.21,9.84L326.68,353a49.89,49.89,0,0,1-21.75,27.2l-27.5,16.5a54.06,54.06,0,0,1-27.75,7.68h-6.84a54,54,0,0,1-27.74-7.68l-27.51-16.5A50,50,0,0,1,165.84,353ZM153,388.63l19,10.61c1,.67,2,1.36,3,2l27.51,16.5a78.43,78.43,0,0,0,10.75,5.33v4.2H183.5a8.75,8.75,0,0,0,0,17.5h29.75v5L153,483.37Zm77.74,60.31v-21a78.66,78.66,0,0,0,12.09,1h6.85A78.33,78.33,0,0,0,263,427.7V449a3.43,3.43,0,0,1-3.43,3.42H234.17a3.44,3.44,0,0,1-3.42-3.43Zm110,34.42-60.23-33.64v-5h33.25a8.75,8.75,0,0,0,0-17.5H280.54v-4.69a78.31,78.31,0,0,0,9.48-4.84L307.91,407l32.86-18.36Zm-96-449,29.21,50.3H215.5Z"/><circle class="cls-6" cx="246.74" cy="303.47" r="24.31"/><path d="M193.89,307.92A33.58,33.58,0,1,0,214,372a107.4,107.4,0,0,1,64.53,0h.05a33.87,33.87,0,0,0,10.14,1.57,33.6,33.6,0,0,0,9.93-65.66c-4.34-1.36-8.72-2.54-13.11-3.56,0-.19,0-.38,0-.58a39.29,39.29,0,0,0-78.58,0c0,.19,0,.38,0,.58q-6.59,1.53-13.1,3.56Zm99.5,16.71a16.08,16.08,0,0,1-9.61,30.69l0,0a124.85,124.85,0,0,0-75,0,16.08,16.08,0,1,1-9.61-30.69q6-1.87,12-3.25a40,40,0,0,0,4.18,6.6c-4.66,1-9.29,2.17-13.88,3.61l-.48.15a8.75,8.75,0,0,0,2.6,17.11,9.06,9.06,0,0,0,2.6-.39l.49-.16a132.27,132.27,0,0,1,32.88-5.82,37.16,37.16,0,0,0,13.41,0,132.35,132.35,0,0,1,32.88,5.82,8.75,8.75,0,1,0,5.23-16.7c-4.6-1.44-9.25-2.63-13.92-3.62a39.49,39.49,0,0,0,4.18-6.59c4,.91,8.07,2,12.05,3.24Zm-68.92-20.85a21.79,21.79,0,1,1,21.79,21.79A21.81,21.81,0,0,1,224.47,303.78Z"/></g></g></svg>