<svg xmlns="http://www.w3.org/2000/svg" viewBox="0 0 400 319"><defs><style>.cls-1{fill:#fddc9b;}.cls-2{fill:#c3d08b;}.cls-3{fill:#8cb5c0;}.cls-4,.cls-6{font-size:21.63px;font-family:Arial-BoldMT, Arial;font-weight:700;}.cls-5{letter-spacing:-0.01em;}.cls-6,.cls-7{opacity:0.45;}.cls-8{fill:none;stroke:#000;stroke-miterlimit:10;stroke-width:3px;}</style></defs><g id="Layer_2" data-name="Layer 2"><g id="Layer_1-2" data-name="Layer 1"><rect class="cls-1" width="400" height="319"/><rect class="cls-2" x="9.59" y="10.14" width="380" height="299"/><rect class="cls-3" x="49.59" y="50.14" width="300" height="219"/><text class="cls-4" transform="translate(126.65 94.05)"><tspan class="cls-5">W</tspan><tspan x="20.22" y="0">idth = 400px</tspan></text><text class="cls-6" transform="translate(71.68 158)"><tspan class="cls-5">W</tspan><tspan x="20.22" y="0">idth - Border = 380px</tspan></text><g class="cls-7"><path d="M135.76,221.16l-3.7-15.48h3.2l2.34,10.63,2.83-10.63h3.71l2.72,10.81,2.37-10.81h3.15l-3.76,15.48H145.3l-3.08-11.57-3.07,11.57Z"/><path d="M153.76,208.43v-2.75h3v2.75Zm0,12.73V210h3v11.21Z"/><path d="M170.05,221.16H167.3v-1.65a4.47,4.47,0,0,1-1.62,1.43,4.1,4.1,0,0,1-1.89.47,4.3,4.3,0,0,1-3.31-1.55,6.34,6.34,0,0,1-1.38-4.35,6.22,6.22,0,0,1,1.35-4.33,4.36,4.36,0,0,1,3.39-1.49,4.19,4.19,0,0,1,3.25,1.57v-5.58h3Zm-7.92-5.85a5.15,5.15,0,0,0,.5,2.6,2.26,2.26,0,0,0,2,1.16,2.19,2.19,0,0,0,1.74-.87,4,4,0,0,0,.72-2.6,4.39,4.39,0,0,0-.7-2.79,2.29,2.29,0,0,0-3.55,0A3.78,3.78,0,0,0,162.13,215.31Z"/><path d="M178.12,210v2.36h-2v4.52a10.83,10.83,0,0,0,.06,1.6.68.68,0,0,0,.27.38.87.87,0,0,0,.5.14,3.81,3.81,0,0,0,1.19-.28l.26,2.3a5.9,5.9,0,0,1-2.35.44,3.75,3.75,0,0,1-1.45-.27,2,2,0,0,1-.94-.69,2.82,2.82,0,0,1-.42-1.16,15.1,15.1,0,0,1-.09-2.09v-4.89h-1.36V210h1.36v-2.23l3-1.73v4Z"/><path d="M183.14,205.68v5.69a4.36,4.36,0,0,1,3.43-1.68,4.43,4.43,0,0,1,1.85.38,3.11,3.11,0,0,1,1.24,1,3.56,3.56,0,0,1,.57,1.31,12,12,0,0,1,.15,2.23v6.58h-3v-5.92a9,9,0,0,0-.16-2.24,1.55,1.55,0,0,0-.6-.76,2,2,0,0,0-1.07-.28,2.42,2.42,0,0,0-1.32.36,2.07,2.07,0,0,0-.85,1.08,6.5,6.5,0,0,0-.27,2.14v5.62h-3V205.68Z"/><path d="M199.06,217v-3h5.83v3Z"/><path d="M67.47,247.11V231.63h5a18.5,18.5,0,0,1,3.71.23,4.1,4.1,0,0,1,2.23,1.52,4.79,4.79,0,0,1,.9,3,5,5,0,0,1-.52,2.4,4.2,4.2,0,0,1-1.31,1.53,4.67,4.67,0,0,1-1.62.73,17.77,17.77,0,0,1-3.25.22h-2v5.84Zm3.13-12.86v4.39h1.71a8.2,8.2,0,0,0,2.47-.24,2.13,2.13,0,0,0,1-.76,2.15,2.15,0,0,0,.35-1.21,2,2,0,0,0-.5-1.39,2.25,2.25,0,0,0-1.25-.69,15.48,15.48,0,0,0-2.25-.1Z"/><path d="M84.09,239.32l-2.69-.49a4.16,4.16,0,0,1,1.56-2.4,5.66,5.66,0,0,1,3.3-.79,7.14,7.14,0,0,1,2.95.47,2.93,2.93,0,0,1,1.37,1.2A6.12,6.12,0,0,1,91,240l0,3.47a11.49,11.49,0,0,0,.15,2.18,6.16,6.16,0,0,0,.53,1.5H88.68c-.07-.2-.17-.49-.28-.88-.05-.17-.09-.29-.11-.34a5.12,5.12,0,0,1-1.62,1.1,4.63,4.63,0,0,1-1.85.37,3.82,3.82,0,0,1-2.73-.94,3.08,3.08,0,0,1-1-2.37,3.16,3.16,0,0,1,.46-1.7,3,3,0,0,1,1.27-1.14,10.17,10.17,0,0,1,2.36-.69,15.46,15.46,0,0,0,2.88-.73v-.29a1.54,1.54,0,0,0-.42-1.22,2.46,2.46,0,0,0-1.59-.37,2.18,2.18,0,0,0-1.24.31A2.16,2.16,0,0,0,84.09,239.32Zm4,2.41q-.57.18-1.8.45a5.44,5.44,0,0,0-1.62.52,1.22,1.22,0,0,0-.58,1,1.44,1.44,0,0,0,.46,1.08,1.65,1.65,0,0,0,1.19.45,2.59,2.59,0,0,0,1.53-.52,1.92,1.92,0,0,0,.71-1,6.29,6.29,0,0,0,.11-1.44Z"/><path d="M104.19,247.11h-2.76v-1.65a4.47,4.47,0,0,1-1.62,1.43,4.07,4.07,0,0,1-1.89.47,4.27,4.27,0,0,1-3.31-1.55,6.39,6.39,0,0,1-1.37-4.35,6.22,6.22,0,0,1,1.34-4.33A4.36,4.36,0,0,1,98,235.64a4.19,4.19,0,0,1,3.25,1.57v-5.58h3Zm-7.92-5.85a5.17,5.17,0,0,0,.49,2.6,2.26,2.26,0,0,0,2,1.16,2.19,2.19,0,0,0,1.74-.87,4,4,0,0,0,.72-2.6,4.39,4.39,0,0,0-.7-2.79,2.29,2.29,0,0,0-3.55,0A3.78,3.78,0,0,0,96.27,241.26Z"/><path d="M117.4,247.11h-2.76v-1.65a4.47,4.47,0,0,1-1.62,1.43,4.07,4.07,0,0,1-1.89.47,4.27,4.27,0,0,1-3.31-1.55,6.34,6.34,0,0,1-1.37-4.35,6.22,6.22,0,0,1,1.34-4.33,4.36,4.36,0,0,1,3.39-1.49,4.19,4.19,0,0,1,3.25,1.57v-5.58h3Zm-7.92-5.85a5.17,5.17,0,0,0,.49,2.6,2.26,2.26,0,0,0,2,1.16,2.19,2.19,0,0,0,1.74-.87,4,4,0,0,0,.72-2.6,4.39,4.39,0,0,0-.7-2.79,2.29,2.29,0,0,0-3.55,0A3.78,3.78,0,0,0,109.48,241.26Z"/><path d="M120.32,234.38v-2.75h3v2.75Zm0,12.73V235.9h3v11.21Z"/><path d="M136.53,247.11h-3v-5.72a8.68,8.68,0,0,0-.19-2.35,1.59,1.59,0,0,0-.62-.83,1.72,1.72,0,0,0-1-.3,2.33,2.33,0,0,0-1.38.43,2.09,2.09,0,0,0-.84,1.12,9.63,9.63,0,0,0-.23,2.57v5.08h-3V235.9h2.75v1.64a4.51,4.51,0,0,1,3.7-1.9,4.37,4.37,0,0,1,1.79.36,2.92,2.92,0,0,1,1.24.9,3.42,3.42,0,0,1,.58,1.25,9.89,9.89,0,0,1,.16,2Z"/><path d="M139.26,247.85l3.39.41a1.15,1.15,0,0,0,.39.81,2.19,2.19,0,0,0,1.33.32,3.4,3.4,0,0,0,1.75-.35,1.43,1.43,0,0,0,.59-.75,4.49,4.49,0,0,0,.14-1.36v-1.64a4,4,0,0,1-3.36,1.82,4.14,4.14,0,0,1-3.58-1.91,6.51,6.51,0,0,1-1-3.76,6.21,6.21,0,0,1,1.36-4.31,4.38,4.38,0,0,1,3.37-1.49,4.13,4.13,0,0,1,3.44,1.83V235.9h2.77V246a10.43,10.43,0,0,1-.32,3,3.74,3.74,0,0,1-.92,1.54,4.26,4.26,0,0,1-1.58.88,8.38,8.38,0,0,1-2.5.31,6.38,6.38,0,0,1-4-1,3,3,0,0,1-1.2-2.47C139.25,248.11,139.26,248,139.26,247.85Zm2.65-6.58a4,4,0,0,0,.7,2.62,2.13,2.13,0,0,0,1.7.82,2.35,2.35,0,0,0,1.84-.85,3.67,3.67,0,0,0,.75-2.51,3.91,3.91,0,0,0-.72-2.59,2.29,2.29,0,0,0-1.82-.85,2.18,2.18,0,0,0-1.75.83A3.86,3.86,0,0,0,141.91,241.27Z"/><path d="M158.42,243v-3h5.83v3Z"/><path d="M172,231.63h6.19a18.36,18.36,0,0,1,2.74.15,4.16,4.16,0,0,1,1.61.64,4,4,0,0,1,1.19,1.3,3.44,3.44,0,0,1,.47,1.81,3.59,3.59,0,0,1-.58,2,3.66,3.66,0,0,1-1.59,1.37,4,4,0,0,1,2.17,1.4,3.71,3.71,0,0,1,.77,2.33,4.6,4.6,0,0,1-.5,2.06,4.08,4.08,0,0,1-1.34,1.59A4.45,4.45,0,0,1,181,247c-.52.05-1.78.09-3.77.1H172Zm3.12,2.58v3.58h2c1.22,0,2,0,2.27-.06a2,2,0,0,0,1.26-.55,1.63,1.63,0,0,0,.46-1.21,1.72,1.72,0,0,0-.39-1.17,1.79,1.79,0,0,0-1.18-.54c-.31,0-1.2,0-2.67,0Zm0,6.15v4.14H178a14.89,14.89,0,0,0,2.14-.09,2,2,0,0,0,1.14-.62,1.93,1.93,0,0,0,.43-1.32,2.07,2.07,0,0,0-.33-1.18,1.93,1.93,0,0,0-1-.7,10.41,10.41,0,0,0-2.77-.23Z"/><path d="M186.9,241.35a6.06,6.06,0,0,1,.73-2.87,5,5,0,0,1,2.06-2.11,6.17,6.17,0,0,1,3-.73,5.56,5.56,0,0,1,4.17,1.66,5.68,5.68,0,0,1,1.63,4.17,5.8,5.8,0,0,1-1.64,4.22,5.54,5.54,0,0,1-4.14,1.67,6.61,6.61,0,0,1-2.94-.69,4.78,4.78,0,0,1-2.12-2A6.73,6.73,0,0,1,186.9,241.35Zm3,.15a3.7,3.7,0,0,0,.79,2.56,2.53,2.53,0,0,0,2,.89,2.5,2.5,0,0,0,1.95-.89,3.74,3.74,0,0,0,.79-2.58,3.65,3.65,0,0,0-.79-2.53,2.5,2.5,0,0,0-1.95-.89,2.53,2.53,0,0,0-2,.89A3.69,3.69,0,0,0,189.94,241.5Z"/><path d="M203.63,247.11h-3V235.9h2.75v1.59a4.92,4.92,0,0,1,1.27-1.49,2.36,2.36,0,0,1,1.29-.36,3.81,3.81,0,0,1,2,.56l-.92,2.59a2.63,2.63,0,0,0-1.39-.49,1.65,1.65,0,0,0-1.06.35,2.36,2.36,0,0,0-.68,1.24,18,18,0,0,0-.25,3.76Z"/><path d="M219.49,247.11h-2.75v-1.65a4.47,4.47,0,0,1-1.62,1.43,4.1,4.1,0,0,1-1.89.47,4.26,4.26,0,0,1-3.31-1.55,6.34,6.34,0,0,1-1.38-4.35,6.27,6.27,0,0,1,1.34-4.33,4.39,4.39,0,0,1,3.39-1.49,4.19,4.19,0,0,1,3.26,1.57v-5.58h3Zm-7.92-5.85a5.15,5.15,0,0,0,.5,2.6,2.26,2.26,0,0,0,2,1.16,2.19,2.19,0,0,0,1.74-.87,4,4,0,0,0,.72-2.6,4.46,4.46,0,0,0-.7-2.79,2.29,2.29,0,0,0-3.55,0A3.78,3.78,0,0,0,211.57,241.26Z"/><path d="M228.91,243.54l3,.5a4.82,4.82,0,0,1-1.8,2.47,5.27,5.27,0,0,1-3.08.85,5,5,0,0,1-4.33-1.91,6.41,6.41,0,0,1-1.11-3.86,6.2,6.2,0,0,1,1.46-4.37,4.81,4.81,0,0,1,3.69-1.58,4.94,4.94,0,0,1,3.94,1.66q1.46,1.65,1.39,5.06h-7.44a3,3,0,0,0,.72,2,2.26,2.26,0,0,0,1.71.74,1.81,1.81,0,0,0,1.17-.38A2.37,2.37,0,0,0,228.91,243.54Zm.17-3a2.87,2.87,0,0,0-.66-2,2.09,2.09,0,0,0-1.55-.67,2.07,2.07,0,0,0-1.6.71,2.73,2.73,0,0,0-.62,1.92Z"/><path d="M237.29,247.11h-3V235.9h2.76v1.59a4.78,4.78,0,0,1,1.27-1.49,2.31,2.31,0,0,1,1.28-.36,3.76,3.76,0,0,1,2,.56l-.91,2.59a2.66,2.66,0,0,0-1.4-.49,1.62,1.62,0,0,0-1.05.35,2.37,2.37,0,0,0-.69,1.24,18.22,18.22,0,0,0-.24,3.76Z"/><path d="M254.22,238.49v-2.72h10.83v2.72Zm0,4.69v-2.73h10.83v2.73Z"/><path d="M272.78,243l2.87-.35a2.68,2.68,0,0,0,.74,1.68,2.09,2.09,0,0,0,3-.11,2.7,2.7,0,0,0,.63-1.88,2.54,2.54,0,0,0-.6-1.78,1.94,1.94,0,0,0-1.47-.65,5.08,5.08,0,0,0-1.36.22l.33-2.42a2.58,2.58,0,0,0,1.83-.52,1.87,1.87,0,0,0,.64-1.47,1.7,1.7,0,0,0-.47-1.25,1.66,1.66,0,0,0-1.23-.46,1.79,1.79,0,0,0-1.3.52,2.53,2.53,0,0,0-.66,1.55l-2.73-.47a6,6,0,0,1,.86-2.24,3.88,3.88,0,0,1,1.6-1.32,5.43,5.43,0,0,1,2.31-.48,4.6,4.6,0,0,1,3.51,1.39,3.54,3.54,0,0,1-1.14,5.83,3.61,3.61,0,0,1,2.12,1.28,3.65,3.65,0,0,1,.8,2.39,4.67,4.67,0,0,1-1.49,3.48,5.58,5.58,0,0,1-7.19.23A4.73,4.73,0,0,1,272.78,243Z"/><path d="M289.92,231.57a4.23,4.23,0,0,1,3.52,1.6q1.51,1.91,1.51,6.31c0,2.92-.51,5-1.52,6.31a4.22,4.22,0,0,1-3.51,1.58,4.42,4.42,0,0,1-3.64-1.73c-.92-1.16-1.38-3.22-1.38-6.2s.51-5,1.52-6.29A4.23,4.23,0,0,1,289.92,231.57Zm0,2.46a1.5,1.5,0,0,0-1,.34,2.29,2.29,0,0,0-.65,1.23,16.62,16.62,0,0,0-.31,3.88,16.33,16.33,0,0,0,.28,3.74,2.62,2.62,0,0,0,.69,1.36,1.54,1.54,0,0,0,1.92,0,2.36,2.36,0,0,0,.65-1.23,17,17,0,0,0,.31-3.86,16.38,16.38,0,0,0-.28-3.75,2.62,2.62,0,0,0-.69-1.36A1.47,1.47,0,0,0,289.92,234Z"/><path d="M302,231.57a4.24,4.24,0,0,1,3.52,1.6c1,1.27,1.51,3.37,1.51,6.31s-.51,5-1.52,6.31a4.22,4.22,0,0,1-3.51,1.58,4.41,4.41,0,0,1-3.64-1.73c-.92-1.16-1.39-3.22-1.39-6.2s.51-5,1.53-6.29A4.21,4.21,0,0,1,302,231.57Zm0,2.46a1.47,1.47,0,0,0-1,.34,2.29,2.29,0,0,0-.65,1.23,16.62,16.62,0,0,0-.31,3.88,17.13,17.13,0,0,0,.27,3.74,2.7,2.7,0,0,0,.7,1.36,1.53,1.53,0,0,0,1.91,0,2.36,2.36,0,0,0,.66-1.23,25.56,25.56,0,0,0,0-7.61,2.7,2.7,0,0,0-.69-1.36A1.47,1.47,0,0,0,302,234Z"/><path d="M309.51,235.9h2.77v1.64a4.1,4.1,0,0,1,1.46-1.37,4,4,0,0,1,2-.53,4.28,4.28,0,0,1,3.32,1.53,6.22,6.22,0,0,1,1.36,4.27,6.43,6.43,0,0,1-1.37,4.37,4.28,4.28,0,0,1-3.33,1.55,3.7,3.7,0,0,1-1.68-.37,5.46,5.46,0,0,1-1.59-1.26v5.65h-3Zm2.94,5.41a4.36,4.36,0,0,0,.75,2.8,2.29,2.29,0,0,0,1.82.9,2.17,2.17,0,0,0,1.73-.83,4.32,4.32,0,0,0,.68-2.72,4,4,0,0,0-.71-2.62A2.17,2.17,0,0,0,315,238a2.26,2.26,0,0,0-1.8.84A3.73,3.73,0,0,0,312.45,241.31Z"/><path d="M321.38,247.11l4-5.78-3.87-5.43h3.62l2,3.08,2.09-3.08h3.48l-3.8,5.31,4.15,5.9h-3.64l-2.28-3.47-2.31,3.47Z"/></g><g class="cls-7"><line class="cls-8" x1="13.59" y1="137.9" x2="385.59" y2="137.9"/><line class="cls-8" x1="13.59" y1="128.69" x2="13.59" y2="147.11"/><line class="cls-8" x1="385.59" y1="128.69" x2="385.59" y2="147.11"/></g><line class="cls-8" x1="3.59" y1="73.71" x2="395.59" y2="73.71"/><line class="cls-8" x1="3.59" y1="64.04" x2="3.59" y2="83.39"/><line class="cls-8" x1="395.59" y1="64.04" x2="395.59" y2="83.39"/><g class="cls-7"><line class="cls-8" x1="53.59" y1="200.95" x2="345.59" y2="200.95"/><line class="cls-8" x1="53.59" y1="189.45" x2="53.59" y2="212.45"/><line class="cls-8" x1="345.59" y1="189.45" x2="345.59" y2="212.45"/></g></g></g></svg>