<svg id="svg" version="1.1" xmlns="http://www.w3.org/2000/svg" xmlns:xlink="http://www.w3.org/1999/xlink" width="400" height="400" viewBox="0, 0, 400,400"><g id="svgg"><path id="path0" d="M175.595 26.517 C 160.389 31.378,150.027 45.599,149.984 61.665 C 149.909 89.894,132.831 101.907,110.111 89.714 C 92.302 80.156,77.418 80.319,64.252 90.216 C 54.267 97.722,37.957 126.888,36.965 139.011 C 35.687 154.646,43.212 167.650,58.869 176.865 C 80.265 189.457,80.215 210.438,58.759 223.242 C 40.216 234.307,32.654 251.896,38.689 269.922 C 40.307 274.756,54.597 299.587,58.361 304.104 C 70.779 319.010,89.654 321.265,110.111 310.286 C 132.859 298.078,149.910 310.103,149.984 338.407 C 150.027 354.723,160.890 369.202,176.509 373.761 C 182.658 375.556,217.342 375.556,223.491 373.761 C 239.110 369.202,249.973 354.723,250.016 338.407 C 250.090 310.127,267.143 298.079,289.850 310.265 C 311.331 321.794,330.590 318.877,343.221 302.183 C 369.823 267.024,369.135 239.887,341.219 223.229 C 319.814 210.455,319.741 189.589,341.056 176.868 C 369.460 159.919,369.915 132.981,342.411 96.771 C 330.559 81.167,310.769 78.508,289.889 89.714 C 267.141 101.922,250.090 89.897,250.016 61.593 C 249.973 45.277,239.110 30.798,223.491 26.239 C 216.900 24.315,181.848 24.518,175.595 26.517 M214.728 139.914 C 251.924 148.468,272.352 190.837,256.127 225.780 C 234.108 273.202,167.333 273.905,144.541 226.953 C 121.658 179.813,163.358 128.100,214.728 139.914 " stroke="none" fill="#FFFFFF" fill-rule="evenodd"></path></g></svg>