<svg id="svg" version="1.1" xmlns="http://www.w3.org/2000/svg" xmlns:xlink="http://www.w3.org/1999/xlink" width="400" height="400" viewBox="0, 0, 400,400"><g id="svgg"><path id="path0" d="M193.305 10.748 C 188.073 12.619,197.085 4.649,94.695 97.955 C -7.902 191.448,-0.504 183.829,0.161 195.317 C 1.036 210.429,8.239 214.757,32.600 214.809 L 48.403 214.844 48.616 298.242 C 48.852 391.019,48.450 384.392,54.090 388.415 L 56.641 390.234 108.823 390.451 C 159.201 390.660,161.126 390.615,164.467 389.137 C 171.489 386.031,171.088 389.578,171.091 330.664 L 171.094 278.906 200.000 278.906 L 228.906 278.906 228.909 330.664 C 228.912 389.578,228.511 386.031,235.533 389.137 C 238.874 390.615,240.799 390.660,291.177 390.451 L 343.359 390.234 345.910 388.415 C 351.550 384.392,351.148 391.019,351.384 298.242 L 351.597 214.844 367.400 214.809 C 384.088 214.773,386.640 214.361,391.717 210.883 C 399.529 205.529,402.444 193.683,398.122 184.850 C 395.580 179.654,214.825 14.240,208.730 11.532 C 203.803 9.343,198.053 9.051,193.305 10.748 M268.750 33.455 C 268.750 34.150,358.990 116.406,359.753 116.406 C 360.006 116.406,360.113 99.619,359.990 79.102 C 359.734 36.614,359.952 38.024,353.137 34.570 C 349.536 32.745,268.750 31.677,268.750 33.455 " stroke="none" fill="#FFFFFF" fill-rule="evenodd"></path></g></svg>