<svg id="svg" version="1.1" xmlns="http://www.w3.org/2000/svg" xmlns:xlink="http://www.w3.org/1999/xlink" width="400" height="400" viewBox="0, 0, 400,400"><g id="svgg"><path id="path0" d="M181.758 14.024 C 113.807 28.766,88.829 113.070,137.879 162.121 C 186.918 211.159,272.105 185.848,285.903 118.138 C 298.571 55.973,243.262 0.680,181.758 14.024 M119.922 213.748 C 79.233 220.960,46.933 252.956,38.993 293.914 C 36.664 305.931,36.717 378.003,39.058 381.843 C 42.856 388.071,26.416 387.494,200.000 387.494 C 373.584 387.494,357.144 388.071,360.942 381.843 C 363.098 378.306,363.343 307.550,361.241 295.255 C 354.202 254.074,320.926 220.798,279.745 213.759 C 269.423 211.994,129.869 211.985,119.922 213.748 " stroke="none" fill="#FFFFFF" fill-rule="evenodd"></path></g></svg>