<svg xmlns="http://www.w3.org/2000/svg" viewBox="0 0 274.24 410.61"><g id="Layer_2" data-name="Layer 2"><g id="Layer_1-2" data-name="Layer 1"><path d="M273.67,124.52C267.73,58.3,213.21,4.92,146.83.34a139.85,139.85,0,0,0-19.42,0C61,4.92,6.5,58.3.57,124.52A136.61,136.61,0,0,0,43.88,237.65a82.34,82.34,0,0,1,26.51,60.09V351a33.7,33.7,0,0,0,29.52,33.4c5.14,13.84,19.39,26.17,37.21,26.17s32.08-12.33,37.21-26.19A33.68,33.68,0,0,0,203.85,351v-53.3a82.4,82.4,0,0,1,26.51-60.09,136.56,136.56,0,0,0,43.32-113.12ZM181.45,306.14v8.45H92.78v-8.45Zm-70.2-140.46h-11a11,11,0,1,1,11-11Zm16.8,16.8h18.13V289.34H128.05ZM92.78,339.84V331.4h88.67v8.44Zm44.33,48.38c-6.43,0-12-4.27-14.8-8.82h29.6c-2.83,4.55-8.37,8.82-14.8,8.82Zm33.1-25.93h-5a11.18,11.18,0,0,0-2.54.31h-51a11.16,11.16,0,0,0-2.53-.31H104a11.2,11.2,0,0,1-9.68-5.65h85.56a11.2,11.2,0,0,1-9.68,5.65Zm44.91-141a105,105,0,0,0-33.23,68.11H163V182.49h11a27.77,27.77,0,1,0-27.78-27.77v11H128.05v-11a27.78,27.78,0,1,0-27.78,27.77h11V289.35H92.34a104.92,104.92,0,0,0-33.23-68.11,114.37,114.37,0,0,1-36.24-94.72c5-55.36,50.56-100,106.07-103.83,2.75-.19,5.47-.24,8.17-.24s5.43.05,8.17.24C200.8,26.53,246.4,71.16,251.35,126.53a114.33,114.33,0,0,1-36.24,94.71ZM163,165.69v-11a11,11,0,1,1,11,11Z"/></g></g></svg>