<svg xmlns="http://www.w3.org/2000/svg" viewBox="0 0 443.21 504"><g id="Layer_2" data-name="Layer 2"><g id="Layer_1-2" data-name="Layer 1"><path d="M359.45,217.91C353.52,151.69,299,98.31,232.61,93.73a139.85,139.85,0,0,0-19.42,0c-66.38,4.58-120.91,58-126.84,124.18A136.64,136.64,0,0,0,129.66,331a82.34,82.34,0,0,1,26.51,60.09v53.3a33.7,33.7,0,0,0,29.53,33.4c5.13,13.84,19.38,26.17,37.2,26.17s32.08-12.33,37.21-26.19a33.68,33.68,0,0,0,29.53-33.39v-53.3A82.39,82.39,0,0,1,316.14,331a136.53,136.53,0,0,0,43.32-113.12ZM267.23,399.53V408H178.56v-8.44ZM197,259.07h-11a11,11,0,1,1,11-11Zm16.8,16.8H232V382.73H213.83ZM178.56,433.23v-8.44h88.67v8.44Zm44.34,48.38c-6.44,0-12-4.27-14.81-8.82H237.7c-2.84,4.55-8.37,8.82-14.81,8.82ZM256,455.68h-5a11.09,11.09,0,0,0-2.53.31H197.38a11.09,11.09,0,0,0-2.53-.31h-5a11.21,11.21,0,0,1-9.69-5.65h85.57a11.2,11.2,0,0,1-9.68,5.65Zm44.9-141a105,105,0,0,0-33.22,68.11H248.77V275.88h11A27.77,27.77,0,1,0,232,248.11v11H213.83v-11a27.77,27.77,0,1,0-27.77,27.77h11V382.74H178.12a105,105,0,0,0-33.22-68.11,114.35,114.35,0,0,1-36.25-94.72c5-55.36,50.57-100,106.07-103.83,2.75-.19,5.48-.24,8.18-.24s5.42,0,8.17.24c55.51,3.84,101.12,48.47,106.07,103.84a114.36,114.36,0,0,1-36.24,94.71Zm-52.13-55.55v-11a11,11,0,1,1,11,11Z"/><path d="M222.89,56.67a8.92,8.92,0,0,0,8.89-8.89V8.88a8.89,8.89,0,0,0-17.77,0V47.79a8.91,8.91,0,0,0,8.88,8.88Z"/><path d="M359.09,45.09a8.9,8.9,0,0,0-12.4,2L323.82,78.53A8.88,8.88,0,0,0,338.19,89l22.87-31.48A8.9,8.9,0,0,0,359.09,45.09Z"/><path d="M400.07,184.84l37-12a8.88,8.88,0,1,0-5.49-16.89l-37,12a8.88,8.88,0,0,0,5.48,16.89Z"/><path d="M436.28,293.91l-37-12a8.88,8.88,0,1,0-5.49,16.88l37,12a8.88,8.88,0,0,0,5.48-16.89Z"/><path d="M336.1,376.82a8.88,8.88,0,1,0-14.36,10.44l22.87,31.47A8.88,8.88,0,1,0,359,408.3Z"/><path d="M117.42,373.34a8.9,8.9,0,0,0-12.4,2L82.15,406.78a8.88,8.88,0,0,0,14.37,10.44l22.87-31.48a8.9,8.9,0,0,0-2-12.4Z"/><path d="M54.32,285.13a8.9,8.9,0,0,0-11.18-5.7l-37,12a8.88,8.88,0,1,0,5.49,16.89l37-12A8.89,8.89,0,0,0,54.32,285.13Z"/><path d="M49.42,165.5l-37-12a8.88,8.88,0,1,0-5.49,16.88l37,12a8.88,8.88,0,0,0,5.48-16.89Z"/><path d="M107.1,87.46A8.88,8.88,0,0,0,121.47,77L98.6,45.55A8.88,8.88,0,1,0,84.23,56Z"/></g></g></svg>