<svg xmlns="http://www.w3.org/2000/svg" viewBox="0 0 238.3 162.37"><defs><style>.cls-1{fill:#f7931e;}</style></defs><g id="Layer_2" data-name="Layer 2"><g id="Layer_1-2" data-name="Layer 1"><path class="cls-1" d="M222.49,124.18V62.68a5,5,0,0,0-5-5h-155V38.18H77.78L39.59,0,0,38.18H15.49v61.5a5,5,0,0,0,5,5h155v19.5h-15l38.19,38.19,39.59-38.19Z"/><path d="M63.15,87.19a9.94,9.94,0,0,0,5,1.4c2.85,0,4.51-1.5,4.51-3.68,0-2-1.15-3.17-4.06-4.28-3.52-1.25-5.7-3.08-5.7-6.12,0-3.36,2.79-5.85,7-5.85a9.86,9.86,0,0,1,4.77,1L73.87,72a8.52,8.52,0,0,0-4.1-1c-2.94,0-4.06,1.76-4.06,3.23,0,2,1.31,3,4.29,4.16,3.64,1.41,5.5,3.17,5.5,6.34C75.5,88,73,90.9,68,90.9a11.1,11.1,0,0,1-5.5-1.38Z"/><path d="M79.21,80.15c0-2-.06-3.59-.12-5.06h2.52l.13,2.66h.07a6.08,6.08,0,0,1,5.5-3c3.74,0,6.56,3.17,6.56,7.87,0,5.57-3.39,8.32-7,8.32a5.45,5.45,0,0,1-4.77-2.43H82v8.41H79.21ZM82,84.27a5.77,5.77,0,0,0,.13,1.15,4.33,4.33,0,0,0,4.22,3.3c3,0,4.7-2.43,4.7-6,0-3.11-1.63-5.76-4.6-5.76a4.49,4.49,0,0,0-4.26,3.49A4.32,4.32,0,0,0,82,81.62Z"/><path d="M100.56,70.74a1.75,1.75,0,0,1-3.49,0A1.72,1.72,0,0,1,98.83,69,1.67,1.67,0,0,1,100.56,70.74ZM97.42,90.58V75.09h2.82V90.58Z"/><path d="M104.91,79.28c0-1.6,0-2.91-.13-4.19h2.5l.16,2.56h.06a5.7,5.7,0,0,1,5.12-2.91c2.14,0,5.47,1.28,5.47,6.59v9.25h-2.81V81.65c0-2.5-.93-4.58-3.59-4.58a4.12,4.12,0,0,0-4,4.19v9.32h-2.82Z"/><path d="M129.45,79.28c0-1.6,0-2.91-.12-4.19h2.46l.13,2.5H132a5.34,5.34,0,0,1,4.87-2.85,4.58,4.58,0,0,1,4.38,3.1h.06a6.4,6.4,0,0,1,1.73-2,5.26,5.26,0,0,1,3.43-1.09c2,0,5.08,1.34,5.08,6.72v9.12h-2.75V81.81c0-3-1.09-4.77-3.36-4.77a3.66,3.66,0,0,0-3.33,2.56A5,5,0,0,0,141.9,81v9.57h-2.75V81.3c0-2.47-1.09-4.26-3.23-4.26a4.23,4.23,0,0,0-3.72,4.19v9.35h-2.75Z"/><path d="M157.71,83.35c.06,3.8,2.49,5.37,5.31,5.37a10.16,10.16,0,0,0,4.29-.8l.48,2a12.68,12.68,0,0,1-5.15,1c-4.77,0-7.62-3.14-7.62-7.81s2.75-8.35,7.26-8.35c5.06,0,6.4,4.45,6.4,7.29a11.45,11.45,0,0,1-.09,1.32Zm8.25-2c0-1.79-.73-4.58-3.9-4.58-2.85,0-4.1,2.63-4.32,4.58Z"/><path d="M171.63,89a1.88,1.88,0,0,1,1.89-2,2,2,0,0,1,0,4A1.87,1.87,0,0,1,171.63,89Zm.8-4.58L172,69h3.07l-.45,15.36Z"/></g></g></svg>