<svg xmlns="http://www.w3.org/2000/svg" viewBox="0 0 500 392"><defs><style>.cls-1{fill:#fddc9b;}.cls-2{fill:#c3d08b;}.cls-3{fill:#8cb5c0;}.cls-4{fill:none;stroke:#000;stroke-miterlimit:10;stroke-width:3px;}.cls-5,.cls-7{font-size:27px;font-family:Arial-BoldMT, Arial;font-weight:700;}.cls-6{letter-spacing:-0.01em;}.cls-7,.cls-8{opacity:0.45;}</style></defs><g id="Layer_2" data-name="Layer 2"><g id="Layer_1-2" data-name="Layer 1"><rect class="cls-1" width="500" height="392"/><rect class="cls-2" x="10" y="10" width="480" height="372"/><rect class="cls-3" x="49.9" y="49.9" width="400" height="292"/><line class="cls-4" x1="56.6" y1="87.5" x2="443.6" y2="87.5"/><line class="cls-4" x1="56.6" y1="76" x2="56.6" y2="99"/><line class="cls-4" x1="443.6" y1="76" x2="443.6" y2="99"/><text class="cls-5" transform="translate(159.07 113.68)"><tspan class="cls-6">W</tspan><tspan x="25.25" y="0">idth = 400px</tspan></text><text class="cls-7" transform="translate(90.44 193.52)"><tspan class="cls-6">W</tspan><tspan x="25.25" y="0">idth + Padding = 480px</tspan></text><g class="cls-8"><path d="M167,273.63,162.4,254.3h4l2.91,13.28,3.53-13.28h4.64l3.39,13.5,3-13.5h3.92l-4.69,19.33h-4.14l-3.85-14.45-3.83,14.45Z"/><path d="M189.49,257.73V254.3h3.71v3.43Zm0,15.9v-14h3.71v14Z"/><path d="M209.83,273.63h-3.44v-2.06a5.52,5.52,0,0,1-2,1.79,5.19,5.19,0,0,1-2.35.58,5.33,5.33,0,0,1-4.14-1.94,7.94,7.94,0,0,1-1.72-5.42,7.82,7.82,0,0,1,1.68-5.42,5.45,5.45,0,0,1,4.23-1.85,5.24,5.24,0,0,1,4.06,1.95v-7h3.7ZM200,266.32a6.36,6.36,0,0,0,.62,3.25,2.8,2.8,0,0,0,2.5,1.45,2.73,2.73,0,0,0,2.18-1.09,5.06,5.06,0,0,0,.89-3.25,5.46,5.46,0,0,0-.87-3.47,2.86,2.86,0,0,0-4.43,0A4.71,4.71,0,0,0,200,266.32Z"/><path d="M219.91,259.63v2.95h-2.53v5.64a13.94,13.94,0,0,0,.07,2,.82.82,0,0,0,.33.47,1.05,1.05,0,0,0,.62.18,4.92,4.92,0,0,0,1.49-.35l.32,2.87a7.36,7.36,0,0,1-2.93.55,4.69,4.69,0,0,1-1.8-.33,2.7,2.7,0,0,1-1.18-.87,3.38,3.38,0,0,1-.52-1.45,17.74,17.74,0,0,1-.12-2.61v-6.1H212v-2.95h1.7v-2.78l3.72-2.17v4.95Z"/><path d="M226.17,254.3v7.11a5.45,5.45,0,0,1,4.28-2.1,5.36,5.36,0,0,1,2.31.48,3.72,3.72,0,0,1,1.55,1.21,4.41,4.41,0,0,1,.71,1.63,14.52,14.52,0,0,1,.19,2.79v8.21h-3.7v-7.4a10.91,10.91,0,0,0-.21-2.79,1.85,1.85,0,0,0-.75-.95,2.4,2.4,0,0,0-1.34-.34,3,3,0,0,0-1.64.44,2.54,2.54,0,0,0-1.06,1.35,8,8,0,0,0-.34,2.67v7h-3.71V254.3Z"/><path d="M250.72,270.85v-5h-5.06v-3.46h5.06v-5h3.37v5h5.08v3.46h-5.08v5Z"/><path d="M81.76,306V286.7H88a23,23,0,0,1,4.64.29,5.07,5.07,0,0,1,2.78,1.89,6,6,0,0,1,1.12,3.77,6.33,6.33,0,0,1-.64,3,5.31,5.31,0,0,1-1.65,1.9,5.46,5.46,0,0,1-2,.92,21.73,21.73,0,0,1-4,.28H85.66V306ZM85.66,290v5.49h2.13a10.13,10.13,0,0,0,3.09-.31,2.58,2.58,0,0,0,1.22-.95,2.62,2.62,0,0,0,.44-1.5,2.52,2.52,0,0,0-.62-1.74,2.72,2.72,0,0,0-1.57-.86,18.49,18.49,0,0,0-2.81-.13Z"/><path d="M102.51,296.3l-3.36-.61a5.16,5.16,0,0,1,1.95-3,7.12,7.12,0,0,1,4.11-1,8.88,8.88,0,0,1,3.69.59,3.69,3.69,0,0,1,1.71,1.49,7.61,7.61,0,0,1,.49,3.31l0,4.33a14.79,14.79,0,0,0,.18,2.72,7.93,7.93,0,0,0,.67,1.88h-3.67c-.09-.25-.21-.61-.35-1.1-.07-.22-.11-.36-.14-.43a6.59,6.59,0,0,1-2,1.38,5.76,5.76,0,0,1-2.3.46,4.79,4.79,0,0,1-3.41-1.17,3.9,3.9,0,0,1-1.25-3,4,4,0,0,1,.57-2.12,3.72,3.72,0,0,1,1.59-1.42,12.46,12.46,0,0,1,3-.87,19.53,19.53,0,0,0,3.59-.91v-.37a1.91,1.91,0,0,0-.52-1.52,3.18,3.18,0,0,0-2-.46,2.67,2.67,0,0,0-1.55.39A2.72,2.72,0,0,0,102.51,296.3Zm4.95,3a21.91,21.91,0,0,1-2.25.57,6.85,6.85,0,0,0-2,.65,1.53,1.53,0,0,0-.72,1.3,1.82,1.82,0,0,0,.58,1.35,2,2,0,0,0,1.47.56,3.29,3.29,0,0,0,1.92-.65,2.4,2.4,0,0,0,.88-1.23,7.27,7.27,0,0,0,.14-1.81Z"/><path d="M127.6,306h-3.45V304a5.52,5.52,0,0,1-2,1.79,5.19,5.19,0,0,1-2.35.58,5.3,5.3,0,0,1-4.13-1.94,7.92,7.92,0,0,1-1.73-5.43,7.81,7.81,0,0,1,1.68-5.41,5.47,5.47,0,0,1,4.23-1.85,5.23,5.23,0,0,1,4.06,2v-7h3.71Zm-9.89-7.31a6.36,6.36,0,0,0,.62,3.25,2.81,2.81,0,0,0,2.5,1.45,2.72,2.72,0,0,0,2.18-1.09,5,5,0,0,0,.89-3.25,5.46,5.46,0,0,0-.87-3.47,2.75,2.75,0,0,0-2.22-1.07,2.78,2.78,0,0,0-2.21,1A4.71,4.71,0,0,0,117.71,298.72Z"/><path d="M144.09,306h-3.44V304a5.55,5.55,0,0,1-2,1.79,5.16,5.16,0,0,1-2.35.58,5.3,5.3,0,0,1-4.13-1.94,9.51,9.51,0,0,1,0-10.84,5.48,5.48,0,0,1,4.23-1.85,5.23,5.23,0,0,1,4.06,2v-7h3.71Zm-9.89-7.31a6.46,6.46,0,0,0,.62,3.25,2.81,2.81,0,0,0,2.51,1.45,2.71,2.71,0,0,0,2.17-1.09,5,5,0,0,0,.9-3.25,5.46,5.46,0,0,0-.87-3.47,2.85,2.85,0,0,0-4.44,0A4.77,4.77,0,0,0,134.2,298.72Z"/><path d="M147.74,290.13V286.7h3.7v3.43Zm0,15.9V292h3.7v14Z"/><path d="M168,306h-3.71v-7.15A11.5,11.5,0,0,0,164,296a2.11,2.11,0,0,0-.78-1,2.22,2.22,0,0,0-1.28-.37,3,3,0,0,0-1.73.53,2.66,2.66,0,0,0-1.05,1.4,12.08,12.08,0,0,0-.28,3.22V306h-3.7V292h3.44v2.05a5.74,5.74,0,0,1,6.85-1.93,3.8,3.8,0,0,1,1.54,1.13,4.08,4.08,0,0,1,.72,1.55,11.42,11.42,0,0,1,.21,2.5Z"/><path d="M171.39,307l4.23.51a1.45,1.45,0,0,0,.49,1,2.81,2.81,0,0,0,1.66.4,4.34,4.34,0,0,0,2.18-.44,1.79,1.79,0,0,0,.74-.94,5.72,5.72,0,0,0,.17-1.7v-2a5,5,0,0,1-4.19,2.27,5.15,5.15,0,0,1-4.47-2.39,8.05,8.05,0,0,1-1.3-4.69,7.72,7.72,0,0,1,1.7-5.38,5.46,5.46,0,0,1,4.21-1.86,5.12,5.12,0,0,1,4.28,2.28v-2h3.47v12.56a12.66,12.66,0,0,1-.41,3.71,4.63,4.63,0,0,1-1.14,1.92,5,5,0,0,1-2,1.09,10.24,10.24,0,0,1-3.12.4q-3.57,0-5-1.22a3.8,3.8,0,0,1-1.49-3.09C171.38,307.28,171.38,307.13,171.39,307Zm3.31-8.21a5.09,5.09,0,0,0,.86,3.26,2.69,2.69,0,0,0,2.13,1A3,3,0,0,0,180,302a4.62,4.62,0,0,0,.93-3.14,4.94,4.94,0,0,0-.89-3.23,2.88,2.88,0,0,0-2.27-1.06,2.75,2.75,0,0,0-2.2,1A4.89,4.89,0,0,0,174.7,298.74Z"/><path d="M200,303.25v-5h-5.06v-3.46H200v-5h3.38v5h5.07v3.46h-5.07v5Z"/><path d="M219,286.7h7.72a22,22,0,0,1,3.42.19,5.07,5.07,0,0,1,2,.8,4.89,4.89,0,0,1,1.48,1.61,4.38,4.38,0,0,1,.6,2.27,4.57,4.57,0,0,1-2.72,4.19,5.13,5.13,0,0,1,2.72,1.75,4.68,4.68,0,0,1,.95,2.91,5.75,5.75,0,0,1-.62,2.57,5.09,5.09,0,0,1-1.67,2,5.57,5.57,0,0,1-2.62.92c-.65.07-2.22.11-4.7.13H219Zm3.9,3.22v4.47h2.56c1.52,0,2.46,0,2.83-.07a2.62,2.62,0,0,0,1.58-.69,2.05,2.05,0,0,0,.57-1.51,2.13,2.13,0,0,0-.49-1.46,2.26,2.26,0,0,0-1.47-.68c-.39,0-1.5-.06-3.34-.06Zm0,7.68v5.17h3.61a17.5,17.5,0,0,0,2.68-.12,2.26,2.26,0,0,0,2-2.41,2.55,2.55,0,0,0-.42-1.48,2.44,2.44,0,0,0-1.22-.88,13.38,13.38,0,0,0-3.46-.28Z"/><path d="M237.64,298.83a7.52,7.52,0,0,1,.91-3.57,6.26,6.26,0,0,1,2.58-2.64,7.59,7.59,0,0,1,3.72-.91,7,7,0,0,1,5.21,2.06,7.75,7.75,0,0,1,0,10.48,6.91,6.91,0,0,1-5.16,2.09,8.09,8.09,0,0,1-3.67-.87,6,6,0,0,1-2.66-2.55A8.44,8.44,0,0,1,237.64,298.83Zm3.8.2a4.63,4.63,0,0,0,1,3.19,3.24,3.24,0,0,0,4.88,0,4.73,4.73,0,0,0,1-3.22,4.63,4.63,0,0,0-1-3.16,3.24,3.24,0,0,0-4.88,0A4.63,4.63,0,0,0,241.44,299Z"/><path d="M258.54,306h-3.71V292h3.44v2a6,6,0,0,1,1.59-1.86,2.9,2.9,0,0,1,1.6-.45,4.65,4.65,0,0,1,2.44.7l-1.15,3.23A3.27,3.27,0,0,0,261,295a2.08,2.08,0,0,0-1.31.43,2.9,2.9,0,0,0-.86,1.55,22.7,22.7,0,0,0-.3,4.69Z"/><path d="M278.34,306H274.9V304a5.63,5.63,0,0,1-2,1.79,5.19,5.19,0,0,1-2.35.58,5.3,5.3,0,0,1-4.13-1.94,7.92,7.92,0,0,1-1.72-5.43,7.81,7.81,0,0,1,1.67-5.41,5.48,5.48,0,0,1,4.23-1.85,5.23,5.23,0,0,1,4.06,2v-7h3.71Zm-9.89-7.31a6.46,6.46,0,0,0,.62,3.25,2.81,2.81,0,0,0,2.5,1.45,2.72,2.72,0,0,0,2.18-1.09,5,5,0,0,0,.9-3.25,5.46,5.46,0,0,0-.88-3.47,2.75,2.75,0,0,0-2.22-1.07,2.78,2.78,0,0,0-2.21,1A4.77,4.77,0,0,0,268.45,298.72Z"/><path d="M290.1,301.57l3.69.62a6.09,6.09,0,0,1-2.25,3.09,6.56,6.56,0,0,1-3.84,1.06,6.27,6.27,0,0,1-5.41-2.38,8,8,0,0,1-1.38-4.83,7.71,7.71,0,0,1,1.82-5.45,6,6,0,0,1,4.6-2,6.24,6.24,0,0,1,4.93,2.06q1.8,2.07,1.73,6.33h-9.28a3.72,3.72,0,0,0,.89,2.56,2.81,2.81,0,0,0,2.14.92,2.25,2.25,0,0,0,1.46-.48A2.9,2.9,0,0,0,290.1,301.57Zm.21-3.74a3.64,3.64,0,0,0-.83-2.45,2.67,2.67,0,0,0-3.93.05,3.41,3.41,0,0,0-.78,2.4Z"/><path d="M300.55,306h-3.7V292h3.44v2a6,6,0,0,1,1.59-1.86,2.9,2.9,0,0,1,1.6-.45,4.7,4.7,0,0,1,2.44.7l-1.15,3.23A3.27,3.27,0,0,0,303,295a2.09,2.09,0,0,0-1.32.43,3,3,0,0,0-.85,1.55,22.46,22.46,0,0,0-.31,4.69Z"/><path d="M321.7,295.27v-3.4h13.51v3.4Zm0,5.85v-3.41h13.51v3.41Z"/><path d="M345.05,301.06l3.69-.38a3.18,3.18,0,0,0,.93,2,2.54,2.54,0,0,0,1.8.73,2.48,2.48,0,0,0,2-.94,4.28,4.28,0,0,0,.81-2.84,3.89,3.89,0,0,0-.8-2.67,2.64,2.64,0,0,0-2.08-.89,3.77,3.77,0,0,0-2.86,1.41l-3-.44L347.39,287h9.8v3.47h-7l-.58,3.28a5.65,5.65,0,0,1,2.53-.62,5.54,5.54,0,0,1,4.18,1.8,6.45,6.45,0,0,1,1.72,4.65,7,7,0,0,1-1.39,4.26,6.15,6.15,0,0,1-5.23,2.56,6.5,6.5,0,0,1-4.37-1.44A6,6,0,0,1,345.05,301.06Z"/><path d="M366.27,286.62a5.27,5.27,0,0,1,4.39,2q1.89,2.37,1.89,7.87c0,3.65-.64,6.28-1.9,7.88a5.28,5.28,0,0,1-4.38,2,5.55,5.55,0,0,1-4.55-2.17c-1.15-1.45-1.72-4-1.72-7.73s.63-6.26,1.89-7.86A5.28,5.28,0,0,1,366.27,286.62Zm0,3.07a1.88,1.88,0,0,0-1.2.43,3,3,0,0,0-.82,1.54,31.6,31.6,0,0,0,0,9.51,3.25,3.25,0,0,0,.87,1.69,1.8,1.8,0,0,0,1.19.43,1.88,1.88,0,0,0,1.2-.43,3,3,0,0,0,.82-1.54,21.32,21.32,0,0,0,.38-4.82,21.05,21.05,0,0,0-.34-4.68,3.33,3.33,0,0,0-.87-1.7A1.83,1.83,0,0,0,366.27,289.69Z"/><path d="M381.29,286.62a5.28,5.28,0,0,1,4.39,2q1.88,2.37,1.88,7.87t-1.9,7.88a5.25,5.25,0,0,1-4.37,2,5.55,5.55,0,0,1-4.55-2.17c-1.15-1.45-1.73-4-1.73-7.73s.63-6.26,1.9-7.86A5.28,5.28,0,0,1,381.29,286.62Zm0,3.07a1.88,1.88,0,0,0-1.2.43,2.89,2.89,0,0,0-.82,1.54,31.6,31.6,0,0,0,0,9.51,3.32,3.32,0,0,0,.86,1.69,1.82,1.82,0,0,0,1.2.43,1.9,1.9,0,0,0,1.2-.43,2.89,2.89,0,0,0,.81-1.54,20.59,20.59,0,0,0,.39-4.82,20.87,20.87,0,0,0-.35-4.68,3.26,3.26,0,0,0-.86-1.7A1.85,1.85,0,0,0,381.29,289.69Z"/><path d="M390.73,292h3.45v2.05a5.25,5.25,0,0,1,1.82-1.71,5,5,0,0,1,2.54-.66,5.34,5.34,0,0,1,4.14,1.91,7.72,7.72,0,0,1,1.7,5.33,8,8,0,0,1-1.71,5.45,5.32,5.32,0,0,1-4.15,1.94,4.66,4.66,0,0,1-2.1-.46,7,7,0,0,1-2-1.58v7.05h-3.7Zm3.66,6.76a5.37,5.37,0,0,0,.94,3.49,2.85,2.85,0,0,0,2.28,1.12,2.67,2.67,0,0,0,2.15-1,5.34,5.34,0,0,0,.86-3.4,5,5,0,0,0-.89-3.26,2.72,2.72,0,0,0-2.19-1.07,2.84,2.84,0,0,0-2.25,1.05A4.62,4.62,0,0,0,394.39,298.79Z"/><path d="M405.55,306l5-7.21L405.76,292h4.52l2.48,3.85,2.61-3.85h4.35L415,298.66l5.18,7.37H415.6l-2.84-4.34L409.88,306Z"/></g><g class="cls-8"><line class="cls-4" x1="15.82" y1="167.18" x2="484.1" y2="167.18"/><line class="cls-4" x1="15.82" y1="155.68" x2="15.82" y2="178.68"/><line class="cls-4" x1="484.1" y1="155.68" x2="484.1" y2="178.68"/></g><g class="cls-8"><line class="cls-4" x1="4.18" y1="246.85" x2="496.1" y2="246.85"/><line class="cls-4" x1="4.18" y1="234.77" x2="4.18" y2="258.93"/><line class="cls-4" x1="496.1" y1="234.77" x2="496.1" y2="258.93"/></g></g></g></svg>