<svg xmlns="http://www.w3.org/2000/svg" viewBox="0 0 1536.61 245.21"><defs><style>.cls-1{fill:none;stroke:#000;stroke-miterlimit:10;stroke-width:3px;}</style></defs><g id="Layer_2" data-name="Layer 2"><g id="Layer_1-2" data-name="Layer 1"><circle class="cls-1" cx="117.12" cy="31.68" r="25.29"/><line class="cls-1" x1="110.31" y1="56.04" x2="94.13" y2="139.67"/><line class="cls-1" x1="94.13" y1="139.67" x2="66.66" y2="187.17"/><line class="cls-1" x1="94.5" y1="139.15" x2="120.07" y2="187.69"/><line class="cls-1" x1="67.81" y1="187.11" x2="8.53" y2="190.21"/><line class="cls-1" x1="147.63" y1="240.04" x2="119.98" y2="187.53"/><line class="cls-1" x1="9.8" y1="189.65" x2="1.23" y2="202.07"/><line class="cls-1" x1="159.26" y1="232.07" x2="146.63" y2="240.33"/><line class="cls-1" x1="109.02" y1="62.74" x2="142.35" y2="90.17"/><line class="cls-1" x1="140.98" y1="89.65" x2="158.8" y2="46.3"/><line class="cls-1" x1="64.03" y1="61.73" x2="108.39" y2="62.58"/><line class="cls-1" x1="83.03" y1="85.78" x2="63.43" y2="61.01"/><circle class="cls-1" cx="393.26" cy="39.45" r="25.29"/><line class="cls-1" x1="381.94" y1="61.02" x2="362.4" y2="143.94"/><line class="cls-1" x1="362.49" y1="143.92" x2="356.54" y2="198.46"/><line class="cls-1" x1="363.69" y1="144.06" x2="406.06" y2="178.92"/><line class="cls-1" x1="357.89" y1="198.64" x2="298.7" y2="194.22"/><line class="cls-1" x1="379.53" y1="231.22" x2="406.99" y2="178.6"/><line class="cls-1" x1="298.91" y1="193.8" x2="287.83" y2="204.03"/><line class="cls-1" x1="394.05" y1="232.56" x2="379" y2="231.44"/><line class="cls-1" x1="380.62" y1="67.53" x2="420.55" y2="83.96"/><line class="cls-1" x1="420.87" y1="84.93" x2="422.77" y2="38.1"/><line class="cls-1" x1="337.26" y1="52.89" x2="379.46" y2="66.61"/><line class="cls-1" x1="334.33" y1="82.91" x2="337.75" y2="51.52"/><circle class="cls-1" cx="660.05" cy="30.63" r="25.29"/><line class="cls-1" x1="644.52" y1="50.93" x2="624.98" y2="133.85"/><line class="cls-1" x1="624" y1="132.31" x2="641.66" y2="184.25"/><line class="cls-1" x1="624.25" y1="133.3" x2="627.22" y2="188.08"/><line class="cls-1" x1="643.7" y1="185.71" x2="585" y2="194.49"/><line class="cls-1" x1="603.95" y1="241.38" x2="627.04" y2="186.7"/><line class="cls-1" x1="585.21" y1="193.5" x2="575.36" y2="204.93"/><line class="cls-1" x1="617.91" y1="240.5" x2="602.82" y2="240.5"/><line class="cls-1" x1="644.52" y1="55.68" x2="644.52" y2="98.86"/><line class="cls-1" x1="643.42" y1="97.86" x2="681.85" y2="79.86"/><line class="cls-1" x1="614.69" y1="89.7" x2="642.49" y2="55.11"/><line class="cls-1" x1="650.49" y1="105.85" x2="614.34" y2="88.59"/><circle class="cls-1" cx="930.97" cy="26.79" r="25.29"/><line class="cls-1" x1="919.89" y1="49.54" x2="900.56" y2="133.02"/><line class="cls-1" x1="900.01" y1="132.29" x2="933.55" y2="175.7"/><line class="cls-1" x1="900.83" y1="132.9" x2="879.49" y2="183.44"/><line class="cls-1" x1="934.5" y1="174.75" x2="900.93" y2="223.71"/><line class="cls-1" x1="846.25" y1="232.12" x2="879.82" y2="183.17"/><line class="cls-1" x1="900.32" y1="223.22" x2="906.36" y2="237.04"/><line class="cls-1" x1="846.57" y1="245.21" x2="846.57" y2="230.13"/><line class="cls-1" x1="918.52" y1="55.45" x2="938.56" y2="91.36"/><line class="cls-1" x1="937.24" y1="91.33" x2="964.55" y2="57.36"/><line class="cls-1" x1="879.67" y1="79.66" x2="918.52" y2="55.45"/><line class="cls-1" x1="899.06" y1="112.36" x2="879.03" y2="77.68"/><circle class="cls-1" cx="1217.48" cy="28.25" r="25.29"/><line class="cls-1" x1="1206.4" y1="50.99" x2="1187.06" y2="134.47"/><line class="cls-1" x1="1187.77" y1="133.88" x2="1224" y2="175.08"/><line class="cls-1" x1="1187.34" y1="134.35" x2="1166" y2="184.89"/><line class="cls-1" x1="1224.42" y1="174.13" x2="1224.42" y2="233.48"/><line class="cls-1" x1="1113.15" y1="209.09" x2="1167.16" y2="184.48"/><line class="cls-1" x1="1224.42" y1="233.48" x2="1235.46" y2="243.76"/><line class="cls-1" x1="1104.49" y1="220.4" x2="1113.94" y2="208.64"/><line class="cls-1" x1="1205.03" y1="56.9" x2="1231.92" y2="97.47"/><line class="cls-1" x1="1231.92" y1="97.47" x2="1256.43" y2="60.5"/><line class="cls-1" x1="1163.35" y1="76.21" x2="1205.03" y2="56.9"/><line class="cls-1" x1="1170.3" y1="115.15" x2="1163.18" y2="75.23"/><circle class="cls-1" cx="1490.99" cy="31.94" r="25.29"/><line class="cls-1" x1="1484.04" y1="56.08" x2="1464.71" y2="139.56"/><line class="cls-1" x1="1464.51" y1="138.02" x2="1492.46" y2="183.85"/><line class="cls-1" x1="1463.86" y1="139.44" x2="1442.52" y2="189.99"/><line class="cls-1" x1="1491.58" y1="182.54" x2="1519.65" y2="240.07"/><line class="cls-1" x1="1385.73" y1="179.39" x2="1443.69" y2="189.57"/><line class="cls-1" x1="1518.78" y1="239.59" x2="1531.62" y2="233.98"/><line class="cls-1" x1="1375.77" y1="188.59" x2="1385.73" y2="179.39"/><line class="cls-1" x1="1482.3" y1="61.99" x2="1515.36" y2="90.02"/><line class="cls-1" x1="1515.36" y1="90.02" x2="1535.24" y2="46.6"/><line class="cls-1" x1="1436.6" y1="64.99" x2="1482.3" y2="61.99"/><line class="cls-1" x1="1439.71" y1="99.26" x2="1437.76" y2="64.6"/></g></g></svg>